<svg width="2229" height="385" viewBox="0 0 2229 385" fill="none" xmlns="http://www.w3.org/2000/svg">
<path d="M188 385C161.333 385 136.5 380.167 113.5 370.5C90.8333 360.833 71 347.333 54 330C37 312.667 23.6667 292.333 14 269C4.66667 245.667 1.74344e-06 220.167 1.74344e-06 192.5C1.74344e-06 164.833 4.66667 139.333 14 116C23.3333 92.3333 36.5 72 53.5 55C70.5 37.6667 90.3333 24.3333 113 15C136 5.33332 161 0.499985 188 0.499985C215 0.499985 239.167 4.99999 260.5 14C282.167 23 300.5 35 315.5 50C330.5 65 341.167 81.6667 347.5 100L279 133C272.667 115 261.5 100.167 245.5 88.5C229.833 76.5 210.667 70.5 188 70.5C166 70.5 146.667 75.6666 130 86C113.333 96.3333 100.333 110.667 91 129C82 147 77.5 168.167 77.5 192.5C77.5 216.833 82 238.167 91 256.5C100.333 274.833 113.333 289.167 130 299.5C146.667 309.833 166 315 188 315C210.667 315 229.833 309.167 245.5 297.5C261.5 285.5 272.667 270.5 279 252.5L347.5 285.5C341.167 303.833 330.5 320.5 315.5 335.5C300.5 350.5 282.167 362.5 260.5 371.5C239.167 380.5 215 385 188 385ZM361.73 379V0.499985H436.73V379H361.73ZM546.113 385C526.447 385 509.447 381.833 495.113 375.5C480.78 369.167 469.78 360.167 462.113 348.5C454.447 336.5 450.613 322.333 450.613 306C450.613 290.667 454.113 277.167 461.113 265.5C468.113 253.5 478.78 243.5 493.113 235.5C507.78 227.5 525.947 221.833 547.613 218.5L631.113 205V260L561.113 272.5C550.447 274.5 542.28 278 536.613 283C530.947 287.667 528.113 294.5 528.113 303.5C528.113 311.833 531.28 318.333 537.613 323C543.947 327.667 551.78 330 561.113 330C573.447 330 584.28 327.333 593.613 322C602.947 316.667 610.113 309.5 615.113 300.5C620.447 291.167 623.113 281 623.113 270V199C623.113 188.667 618.947 180 610.613 173C602.613 166 591.613 162.5 577.613 162.5C564.28 162.5 552.447 166.167 542.113 173.5C532.113 180.833 524.78 190.5 520.113 202.5L460.113 174C465.447 158.667 473.947 145.5 485.613 134.5C497.28 123.5 511.28 115 527.613 109C543.947 103 561.78 100 581.113 100C604.113 100 624.447 104.167 642.113 112.5C659.78 120.833 673.447 132.5 683.113 147.5C693.113 162.167 698.113 179.333 698.113 199V379H628.113V335L645.113 332C637.113 344 628.28 354 618.613 362C608.947 369.667 598.113 375.333 586.113 379C574.113 383 560.78 385 546.113 385ZM821.117 385C799.117 385 780.284 380.333 764.617 371C749.284 361.333 737.617 348 729.617 331C721.617 314 717.617 294.167 717.617 271.5V106H792.617V265.5C792.617 275.833 794.617 285 798.617 293C802.951 300.667 808.951 306.667 816.617 311C824.284 315.333 832.951 317.5 842.617 317.5C852.617 317.5 861.284 315.333 868.617 311C876.284 306.667 882.117 300.667 886.117 293C890.451 285 892.617 275.833 892.617 265.5V106H967.617V379H897.617V325L901.617 337C895.284 353.333 884.951 365.5 870.617 373.5C856.617 381.167 840.117 385 821.117 385ZM1120.93 385C1094.27 385 1070.43 378.667 1049.43 366C1028.43 353.333 1011.77 336.167 999.434 314.5C987.434 292.833 981.434 268.833 981.434 242.5C981.434 215.833 987.6 191.833 999.934 170.5C1012.27 148.833 1028.93 131.667 1049.93 119C1070.93 106.333 1094.43 100 1120.43 100C1140.43 100 1158.1 103.833 1173.43 111.5C1189.1 118.833 1201.43 129.333 1210.43 143L1198.93 158V0.499985H1273.93V379H1203.93V329L1210.93 344.5C1201.6 357.833 1188.93 368 1172.93 375C1156.93 381.667 1139.6 385 1120.93 385ZM1129.93 317.5C1143.6 317.5 1155.6 314.333 1165.93 308C1176.27 301.667 1184.27 292.833 1189.93 281.5C1195.93 270.167 1198.93 257.167 1198.93 242.5C1198.93 227.833 1195.93 214.833 1189.93 203.5C1184.27 192.167 1176.27 183.333 1165.93 177C1155.6 170.667 1143.6 167.5 1129.93 167.5C1116.27 167.5 1103.93 170.833 1092.93 177.5C1082.27 183.833 1073.93 192.667 1067.93 204C1061.93 215 1058.93 227.833 1058.93 242.5C1058.93 257.167 1061.93 270.167 1067.93 281.5C1073.93 292.833 1082.27 301.667 1092.93 308C1103.93 314.333 1116.27 317.5 1129.93 317.5ZM1383.36 385C1363.69 385 1346.69 381.833 1332.36 375.5C1318.03 369.167 1307.03 360.167 1299.36 348.5C1291.69 336.5 1287.86 322.333 1287.86 306C1287.86 290.667 1291.36 277.167 1298.36 265.5C1305.36 253.5 1316.03 243.5 1330.36 235.5C1345.03 227.5 1363.19 221.833 1384.86 218.5L1468.36 205V260L1398.36 272.5C1387.69 274.5 1379.53 278 1373.86 283C1368.19 287.667 1365.36 294.5 1365.36 303.5C1365.36 311.833 1368.53 318.333 1374.86 323C1381.19 327.667 1389.03 330 1398.36 330C1410.69 330 1421.53 327.333 1430.86 322C1440.19 316.667 1447.36 309.5 1452.36 300.5C1457.69 291.167 1460.36 281 1460.36 270V199C1460.36 188.667 1456.19 180 1447.86 173C1439.86 166 1428.86 162.5 1414.86 162.5C1401.53 162.5 1389.69 166.167 1379.36 173.5C1369.36 180.833 1362.03 190.5 1357.36 202.5L1297.36 174C1302.69 158.667 1311.19 145.5 1322.86 134.5C1334.53 123.5 1348.53 115 1364.86 109C1381.19 103 1399.03 100 1418.36 100C1441.36 100 1461.69 104.167 1479.36 112.5C1497.03 120.833 1510.69 132.5 1520.36 147.5C1530.36 162.167 1535.36 179.333 1535.36 199V379H1465.36V335L1482.36 332C1474.36 344 1465.53 354 1455.86 362C1446.19 369.667 1435.36 375.333 1423.36 379C1411.36 383 1398.03 385 1383.36 385ZM1713.36 385C1694.7 385 1677.36 381.667 1661.36 375C1645.7 368 1633.03 357.833 1623.36 344.5L1630.36 329V379H1560.36V0.499985H1635.36V158L1623.86 143C1632.86 129.333 1645.03 118.833 1660.36 111.5C1676.03 103.833 1693.86 100 1713.86 100C1739.86 100 1763.36 106.333 1784.36 119C1805.36 131.667 1822.03 148.833 1834.36 170.5C1846.7 191.833 1852.86 215.833 1852.86 242.5C1852.86 268.833 1846.7 292.833 1834.36 314.5C1822.36 336.167 1805.86 353.333 1784.86 366C1763.86 378.667 1740.03 385 1713.36 385ZM1704.36 317.5C1718.36 317.5 1730.7 314.333 1741.36 308C1752.03 301.667 1760.36 292.833 1766.36 281.5C1772.36 270.167 1775.36 257.167 1775.36 242.5C1775.36 227.833 1772.36 215 1766.36 204C1760.36 192.667 1752.03 183.833 1741.36 177.5C1730.7 170.833 1718.36 167.5 1704.36 167.5C1691.03 167.5 1679.03 170.667 1668.36 177C1658.03 183.333 1649.86 192.167 1643.86 203.5C1638.2 214.833 1635.36 227.833 1635.36 242.5C1635.36 257.167 1638.2 270.167 1643.86 281.5C1649.86 292.833 1658.03 301.667 1668.36 308C1679.03 314.333 1691.03 317.5 1704.36 317.5ZM1866.79 379V0.499985H1941.79V379H1866.79ZM2098.17 385C2069.17 385 2044.01 378.667 2022.67 366C2001.34 353 1984.84 335.667 1973.17 314C1961.51 292.333 1955.67 268.333 1955.67 242C1955.67 214.667 1961.67 190.333 1973.67 169C1986.01 147.667 2002.51 130.833 2023.17 118.5C2043.84 106.167 2067.17 100 2093.17 100C2114.84 100 2134.01 103.5 2150.67 110.5C2167.34 117.167 2181.34 126.667 2192.67 139C2204.34 151.333 2213.17 165.667 2219.17 182C2225.17 198 2228.17 215.5 2228.17 234.5C2228.17 239.833 2227.84 245.167 2227.17 250.5C2226.84 255.5 2226.01 259.833 2224.67 263.5H2020.17V208.5H2182.17L2146.67 234.5C2150.01 220.167 2149.84 207.5 2146.17 196.5C2142.51 185.167 2136.01 176.333 2126.67 170C2117.67 163.333 2106.51 160 2093.17 160C2080.17 160 2069.01 163.167 2059.67 169.5C2050.34 175.833 2043.34 185.167 2038.67 197.5C2034.01 209.833 2032.17 224.833 2033.17 242.5C2031.84 257.833 2033.67 271.333 2038.67 283C2043.67 294.667 2051.34 303.833 2061.67 310.5C2072.01 316.833 2084.51 320 2099.17 320C2112.51 320 2123.84 317.333 2133.17 312C2142.84 306.667 2150.34 299.333 2155.67 290L2215.67 318.5C2210.34 331.833 2201.84 343.5 2190.17 353.5C2178.84 363.5 2165.34 371.333 2149.67 377C2134.01 382.333 2116.84 385 2098.17 385Z" fill="#DE7356"/>
</svg>
